<mxfile host="app.diagrams.net" modified="2023-09-21T04:30:53.894Z" agent="Mozilla/5.0 (Windows NT 10.0; Win64; x64) AppleWebKit/537.36 (KHTML, like Gecko) Chrome/112.0.0.0 Safari/537.36" etag="a5rSE6DJpLDOgPamRjBK" version="21.7.5" type="device">
  <diagram name="Page-1" id="Wu_IMLw_mw5L2FtRZVWz">
    <mxGraphModel dx="1262" dy="653" grid="0" gridSize="10" guides="1" tooltips="1" connect="1" arrows="1" fold="1" page="1" pageScale="1" pageWidth="850" pageHeight="1100" math="0" shadow="0">
      <root>
        <mxCell id="0" />
        <mxCell id="1" parent="0" />
        <mxCell id="0Wb7VN7auDw2-vCz1kvO-2" style="edgeStyle=orthogonalEdgeStyle;rounded=0;orthogonalLoop=1;jettySize=auto;html=1;exitX=0.5;exitY=1;exitDx=0;exitDy=0;" parent="1" source="0Wb7VN7auDw2-vCz1kvO-1" target="0Wb7VN7auDw2-vCz1kvO-1" edge="1">
          <mxGeometry relative="1" as="geometry" />
        </mxCell>
        <mxCell id="0Wb7VN7auDw2-vCz1kvO-3" value="Review system" style="rounded=1;whiteSpace=wrap;html=1;fillColor=#647687;fontColor=#ffffff;strokeColor=#314354;" parent="1" vertex="1">
          <mxGeometry x="340" y="50" width="120" height="40" as="geometry" />
        </mxCell>
        <mxCell id="0Wb7VN7auDw2-vCz1kvO-4" value="Ads managements" style="rounded=1;whiteSpace=wrap;html=1;arcSize=18;fillColor=#647687;fontColor=#ffffff;strokeColor=#314354;" parent="1" vertex="1">
          <mxGeometry x="342.5" y="550" width="125" height="50" as="geometry" />
        </mxCell>
        <mxCell id="0Wb7VN7auDw2-vCz1kvO-5" value="End User" style="shape=umlActor;verticalLabelPosition=bottom;verticalAlign=top;html=1;outlineConnect=0;" parent="1" vertex="1">
          <mxGeometry x="100" y="290" width="30" height="60" as="geometry" />
        </mxCell>
        <mxCell id="0Wb7VN7auDw2-vCz1kvO-6" value="User Accounts&amp;nbsp;&lt;br&gt;Manager" style="shape=umlActor;verticalLabelPosition=bottom;verticalAlign=top;html=1;outlineConnect=0;" parent="1" vertex="1">
          <mxGeometry x="110" y="80" width="30" height="60" as="geometry" />
        </mxCell>
        <mxCell id="0Wb7VN7auDw2-vCz1kvO-7" value="Merchants Accounts&amp;nbsp;&lt;br&gt;manager" style="shape=umlActor;verticalLabelPosition=bottom;verticalAlign=top;html=1;outlineConnect=0;" parent="1" vertex="1">
          <mxGeometry x="140" y="490" width="30" height="60" as="geometry" />
        </mxCell>
        <mxCell id="0Wb7VN7auDw2-vCz1kvO-11" value="Map system" style="rounded=1;whiteSpace=wrap;html=1;fillColor=#647687;fontColor=#ffffff;strokeColor=#314354;" parent="1" vertex="1">
          <mxGeometry x="660" y="90" width="110" height="40" as="geometry" />
        </mxCell>
        <mxCell id="0Wb7VN7auDw2-vCz1kvO-12" value="Search system" style="rounded=1;whiteSpace=wrap;html=1;fillColor=#647687;fontColor=#ffffff;strokeColor=#314354;" parent="1" vertex="1">
          <mxGeometry x="650" y="490" width="120" height="40" as="geometry" />
        </mxCell>
        <mxCell id="0Wb7VN7auDw2-vCz1kvO-21" value="" style="endArrow=classic;html=1;rounded=0;" parent="1" source="0Wb7VN7auDw2-vCz1kvO-1" edge="1">
          <mxGeometry width="50" height="50" relative="1" as="geometry">
            <mxPoint x="400" y="360" as="sourcePoint" />
            <mxPoint x="450" y="310" as="targetPoint" />
          </mxGeometry>
        </mxCell>
        <mxCell id="0Wb7VN7auDw2-vCz1kvO-22" value="" style="endArrow=classic;html=1;rounded=0;" parent="1" target="0Wb7VN7auDw2-vCz1kvO-1" edge="1">
          <mxGeometry width="50" height="50" relative="1" as="geometry">
            <mxPoint x="400" y="360" as="sourcePoint" />
            <mxPoint x="450" y="310" as="targetPoint" />
          </mxGeometry>
        </mxCell>
        <mxCell id="0Wb7VN7auDw2-vCz1kvO-1" value="Reviewer" style="ellipse;whiteSpace=wrap;html=1;aspect=fixed;fillColor=#dae8fc;strokeColor=#6c8ebf;" parent="1" vertex="1">
          <mxGeometry x="350" y="265" width="110" height="110" as="geometry" />
        </mxCell>
        <mxCell id="0Wb7VN7auDw2-vCz1kvO-23" value="" style="endArrow=classic;html=1;rounded=0;entryX=-0.014;entryY=0.464;entryDx=0;entryDy=0;exitX=1;exitY=0.3333333333333333;exitDx=0;exitDy=0;exitPerimeter=0;entryPerimeter=0;" parent="1" edge="1" target="0Wb7VN7auDw2-vCz1kvO-1">
          <mxGeometry width="50" height="50" relative="1" as="geometry">
            <mxPoint x="130" y="316" as="sourcePoint" />
            <mxPoint x="340" y="316" as="targetPoint" />
            <Array as="points" />
          </mxGeometry>
        </mxCell>
        <mxCell id="0Wb7VN7auDw2-vCz1kvO-24" value="" style="endArrow=classic;html=1;rounded=0;exitX=0.009;exitY=0.582;exitDx=0;exitDy=0;exitPerimeter=0;" parent="1" source="0Wb7VN7auDw2-vCz1kvO-1" edge="1">
          <mxGeometry width="50" height="50" relative="1" as="geometry">
            <mxPoint x="320" y="360" as="sourcePoint" />
            <mxPoint x="130" y="330" as="targetPoint" />
            <Array as="points">
              <mxPoint x="310" y="330" />
              <mxPoint x="260" y="330" />
            </Array>
          </mxGeometry>
        </mxCell>
        <mxCell id="0Wb7VN7auDw2-vCz1kvO-25" value="" style="endArrow=classic;startArrow=classic;html=1;rounded=0;exitX=0.5;exitY=0;exitDx=0;exitDy=0;entryX=0.5;entryY=1;entryDx=0;entryDy=0;" parent="1" source="0Wb7VN7auDw2-vCz1kvO-4" edge="1" target="0Wb7VN7auDw2-vCz1kvO-1">
          <mxGeometry width="50" height="50" relative="1" as="geometry">
            <mxPoint x="399.5" y="485" as="sourcePoint" />
            <mxPoint x="399.5" y="375" as="targetPoint" />
            <Array as="points" />
          </mxGeometry>
        </mxCell>
        <mxCell id="0Wb7VN7auDw2-vCz1kvO-28" value="" style="endArrow=classic;startArrow=classic;html=1;rounded=0;entryX=0;entryY=1;entryDx=0;entryDy=0;exitX=0.927;exitY=0.223;exitDx=0;exitDy=0;exitPerimeter=0;" parent="1" source="0Wb7VN7auDw2-vCz1kvO-1" target="0Wb7VN7auDw2-vCz1kvO-11" edge="1">
          <mxGeometry width="50" height="50" relative="1" as="geometry">
            <mxPoint x="521.6860945168887" y="268.76931317098797" as="sourcePoint" />
            <mxPoint x="540" y="210" as="targetPoint" />
          </mxGeometry>
        </mxCell>
        <mxCell id="0Wb7VN7auDw2-vCz1kvO-29" value="" style="endArrow=classic;startArrow=classic;html=1;rounded=0;entryX=0.5;entryY=1;entryDx=0;entryDy=0;" parent="1" target="0Wb7VN7auDw2-vCz1kvO-3" edge="1">
          <mxGeometry width="50" height="50" relative="1" as="geometry">
            <mxPoint x="400" y="260" as="sourcePoint" />
            <mxPoint x="410" y="180" as="targetPoint" />
            <Array as="points">
              <mxPoint x="400" y="260" />
            </Array>
          </mxGeometry>
        </mxCell>
        <mxCell id="0Wb7VN7auDw2-vCz1kvO-30" value="" style="endArrow=classic;startArrow=classic;html=1;rounded=0;" parent="1" source="0Wb7VN7auDw2-vCz1kvO-1" edge="1">
          <mxGeometry width="50" height="50" relative="1" as="geometry">
            <mxPoint x="190" y="210" as="sourcePoint" />
            <mxPoint x="150" y="110" as="targetPoint" />
          </mxGeometry>
        </mxCell>
        <mxCell id="0Wb7VN7auDw2-vCz1kvO-33" value="" style="endArrow=classic;html=1;rounded=0;entryX=0;entryY=0;entryDx=0;entryDy=0;startArrow=classic;startFill=1;" parent="1" source="0Wb7VN7auDw2-vCz1kvO-1" target="0Wb7VN7auDw2-vCz1kvO-12" edge="1">
          <mxGeometry width="50" height="50" relative="1" as="geometry">
            <mxPoint x="440" y="380" as="sourcePoint" />
            <mxPoint x="630" y="470" as="targetPoint" />
            <Array as="points" />
          </mxGeometry>
        </mxCell>
        <mxCell id="0Wb7VN7auDw2-vCz1kvO-34" value="" style="endArrow=classic;startArrow=classic;html=1;rounded=0;" parent="1" source="0Wb7VN7auDw2-vCz1kvO-7" target="0Wb7VN7auDw2-vCz1kvO-1" edge="1">
          <mxGeometry width="50" height="50" relative="1" as="geometry">
            <mxPoint x="340" y="360" as="sourcePoint" />
            <mxPoint x="390" y="310" as="targetPoint" />
            <Array as="points" />
          </mxGeometry>
        </mxCell>
        <mxCell id="0Wb7VN7auDw2-vCz1kvO-35" value="1" style="ellipse;whiteSpace=wrap;html=1;aspect=fixed;fillColor=#f0a30a;fontColor=#000000;strokeColor=#BD7000;" parent="1" vertex="1">
          <mxGeometry x="405" y="160" width="40" height="40" as="geometry" />
        </mxCell>
        <mxCell id="0Wb7VN7auDw2-vCz1kvO-37" value="2" style="ellipse;whiteSpace=wrap;html=1;aspect=fixed;fillColor=#f0a30a;fontColor=#000000;strokeColor=#BD7000;" parent="1" vertex="1">
          <mxGeometry x="510" y="170" width="40" height="40" as="geometry" />
        </mxCell>
        <mxCell id="0Wb7VN7auDw2-vCz1kvO-38" value="" style="ellipse;whiteSpace=wrap;html=1;aspect=fixed;" parent="1" vertex="1">
          <mxGeometry height="70" as="geometry" />
        </mxCell>
        <mxCell id="0Wb7VN7auDw2-vCz1kvO-42" value="3" style="ellipse;whiteSpace=wrap;html=1;aspect=fixed;fillColor=#f0a30a;fontColor=#000000;strokeColor=#BD7000;" parent="1" vertex="1">
          <mxGeometry x="550" y="370" width="40" height="40" as="geometry" />
        </mxCell>
        <mxCell id="0Wb7VN7auDw2-vCz1kvO-43" value="4" style="ellipse;whiteSpace=wrap;html=1;aspect=fixed;fillColor=#f0a30a;fontColor=#000000;strokeColor=#BD7000;" parent="1" vertex="1">
          <mxGeometry x="360" y="450" width="40" height="40" as="geometry" />
        </mxCell>
        <mxCell id="0Wb7VN7auDw2-vCz1kvO-46" value="&lt;font style=&quot;font-size: 12px;&quot;&gt;Post Reviews, Comments&lt;br&gt;and Likes&lt;br&gt;&lt;br&gt;&lt;/font&gt;" style="text;html=1;align=center;verticalAlign=middle;resizable=0;points=[];autosize=1;strokeColor=none;fillColor=none;rotation=-90;" parent="1" vertex="1">
          <mxGeometry x="310" y="150" width="160" height="60" as="geometry" />
        </mxCell>
        <mxCell id="0Wb7VN7auDw2-vCz1kvO-49" value="Locates Restaurants, Hotels,&lt;br&gt;Event and Users current location" style="text;html=1;align=center;verticalAlign=middle;resizable=0;points=[];autosize=1;strokeColor=none;fillColor=none;rotation=-37;" parent="1" vertex="1">
          <mxGeometry x="465" y="210" width="200" height="40" as="geometry" />
        </mxCell>
        <mxCell id="0Wb7VN7auDw2-vCz1kvO-51" value="Recommends and Searches&amp;nbsp;&lt;br&gt;Hotels and Events" style="text;html=1;align=center;verticalAlign=middle;resizable=0;points=[];autosize=1;strokeColor=none;fillColor=none;rotation=35;" parent="1" vertex="1">
          <mxGeometry x="455" y="420" width="180" height="40" as="geometry" />
        </mxCell>
        <mxCell id="0Wb7VN7auDw2-vCz1kvO-52" value="Manages and displays&amp;nbsp;&lt;br&gt;advertisements" style="text;html=1;align=center;verticalAlign=middle;resizable=0;points=[];autosize=1;strokeColor=none;fillColor=none;rotation=-90;" parent="1" vertex="1">
          <mxGeometry x="350" y="450" width="150" height="40" as="geometry" />
        </mxCell>
        <mxCell id="0Wb7VN7auDw2-vCz1kvO-53" value="Manages Merchant accounts&amp;nbsp;" style="text;html=1;align=center;verticalAlign=middle;resizable=0;points=[];autosize=1;strokeColor=none;fillColor=none;rotation=-40;" parent="1" vertex="1">
          <mxGeometry x="190" y="420" width="180" height="30" as="geometry" />
        </mxCell>
        <mxCell id="0Wb7VN7auDw2-vCz1kvO-55" value="Register profile or sign in,&lt;br&gt;search restaurants, hotels,events" style="text;html=1;align=center;verticalAlign=middle;resizable=0;points=[];autosize=1;strokeColor=none;fillColor=none;" parent="1" vertex="1">
          <mxGeometry x="130" y="265" width="200" height="40" as="geometry" />
        </mxCell>
        <mxCell id="0Wb7VN7auDw2-vCz1kvO-56" value="Provides Reviews,restaurants,&lt;br&gt;events, hotels,suggestions" style="text;html=1;align=center;verticalAlign=middle;resizable=0;points=[];autosize=1;strokeColor=none;fillColor=none;" parent="1" vertex="1">
          <mxGeometry x="155" y="335" width="190" height="40" as="geometry" />
        </mxCell>
        <mxCell id="ABK_TDbpuOTvB-Sc1rB6-1" value="Manages User accounts&amp;nbsp;" style="text;html=1;align=center;verticalAlign=middle;resizable=0;points=[];autosize=1;strokeColor=none;fillColor=none;rotation=40;" vertex="1" parent="1">
          <mxGeometry x="200" y="190" width="160" height="30" as="geometry" />
        </mxCell>
      </root>
    </mxGraphModel>
  </diagram>
</mxfile>
